<svg width="24" height="24" xmlns="http://www.w3.org/2000/svg">
 <defs>
  <linearGradient y2="0" x2="1" y1="0.471354" x1="0.609375" id="svg_22">
   <stop offset="0" stop-color="#540954"/>
   <stop offset="1" stop-color="#abf6ab"/>
  </linearGradient>
 </defs>
 <g>
  <title>background</title>
  <rect fill="none" id="canvas_background" height="402" width="582" y="-1" x="-1"/>
 </g>
 <g>
  <title>Layer 1</title>
  <path id="svg_1" fill="url(#svg_22)" d="m17,3.136885l0,-2.69629c0,-0.27637 -0.22363,-0.5 -0.5,-0.5l-3,0c-0.19238,0 -0.36816,0.11035 -0.45117,0.28418l-0.81934,1.71338c-0.01904,0 -0.03857,0.00049 -0.05713,0.00049l-0.17236,0.00195c-6.06543,0 -11,4.93457 -11,11c0,1.87891 0.48828,3.74023 1.41162,5.38281c0.09131,0.16211 0.26904,0.25928 0.45264,0.2544c0.18652,-0.00586 0.354,-0.11524 0.43457,-0.28369l1.12695,-2.35645c0.05664,-0.11865 0.06445,-0.25537 0.02149,-0.37939c-0.29688,-0.85645 -0.44727,-1.73731 -0.44727,-2.61768c0,-3.9751 2.90186,-7.29639 6.75,-7.9082l-8.70117,18.19238c-0.07422,0.15478 -0.06348,0.33691 0.02832,0.48242c0.09131,0.14551 0.25098,0.2334 0.42285,0.2334l3,0c0.2002,0 0.38086,-0.11914 0.45947,-0.30322l2.87012,-6.69678l4.67041,0l0,0.5c0,0.19238 0.11035,0.36719 0.2832,0.45068c0.17383,0.08399 0.37891,0.05957 0.5293,-0.06005l2.49999,-2c0.11866,-0.09522 0.18751,-0.23877 0.18751,-0.39063s-0.06885,-0.29541 -0.18751,-0.39062l-2.49999,-2c-0.15088,-0.12061 -0.35742,-0.14454 -0.5293,-0.06006c-0.17285,0.08349 -0.2832,0.2583 -0.2832,0.45068l0,0.5l-3.22656,0l3.22656,-7.17041l0,4.67041c0,0.15186 0.06885,0.29541 0.1875,0.39063l2.49999,2c0.14942,0.12011 0.35597,0.14306 0.52931,0.06005c0.17285,-0.08349 0.2832,-0.2583 0.2832,-0.45068l0,-6.73047c1.89404,1.51953 3,3.7876 3,6.23047c0,2.51965 -1.17371,4.76752 -3,6.23505l0,-1.73505c0,-0.19238 -0.11035,-0.36719 -0.2832,-0.45068c-0.17383,-0.0835 -0.3794,-0.06006 -0.52931,0.06006l-2.49999,2c-0.16553,0.13281 -0.22949,0.35595 -0.15918,0.55615s0.25928,0.33447 0.47168,0.33447l1.86438,0c-1.14655,0.63556 -2.4632,1 -3.86438,1c-1.0332,0 -2.0459,-0.19873 -3.00977,-0.59082c-0.25195,-0.10059 -0.54052,0.01611 -0.64794,0.2666l-0.78809,1.83936c-0.05274,0.12304 -0.0542,0.2622 -0.00342,0.38574c0.05078,0.12402 0.14893,0.22266 0.27295,0.27344c1.33252,0.54785 2.73779,0.82568 4.17627,0.82568c6.06543,0 11,-4.93457 11,-11c0,-4.10742 -2.34473,-7.9209 -6,-9.80371z"/>
 </g>
</svg>