<svg width="686" height="471" viewBox="0 0 686 471" fill="none" xmlns="http://www.w3.org/2000/svg">
<path d="M374.579 277.413V259.837C374.579 237.303 391.708 219.276 414.245 219.276C441.29 241.81 468.335 241.81 495.38 219.276C517.917 219.276 536.848 237.303 536.848 259.837V277.413H374.579Z" fill="#B0F557"/>
<path d="M393.06 225.585C399.371 221.529 406.582 219.276 414.245 219.276C441.29 241.81 468.335 241.81 495.38 219.276C503.042 219.276 510.254 221.529 516.565 225.134C521.974 221.078 526.932 217.022 530.538 213.417C543.61 199.446 547.216 182.771 539.553 164.743C528.735 139.055 526.031 139.505 524.228 107.057C524.228 88.1281 509.804 72.3544 490.872 71.0024C490.872 71.0024 479.153 57.482 454.812 57.482C425.965 57.482 399.821 73.2557 393.06 98.0431C386.299 123.281 394.412 133.196 387.2 152.124C379.087 173.306 361.057 189.981 381.341 214.769C384.045 217.924 388.102 221.98 393.06 225.585Z" fill="#6A462F"/>
<path d="M406.132 147.167C406.132 183.221 427.768 205.305 454.812 205.305C481.857 205.305 505.296 183.221 505.296 147.167C505.296 129.14 500.789 120.126 500.789 120.126L482.759 102.099C482.759 102.099 428.669 111.113 410.639 120.126C410.639 120.126 406.132 129.14 406.132 147.167Z" fill="#C19A65"/>
<path d="M374.579 273.357V259.386C374.579 236.852 391.708 218.825 414.245 218.825C441.29 241.359 468.335 241.359 495.38 218.825C517.917 218.825 536.848 236.852 536.848 259.386V273.357" stroke="black" stroke-width="0.5" stroke-linecap="round" stroke-linejoin="round"/>
<path d="M482.759 142.66C482.759 147.618 478.702 151.674 473.744 151.674C468.786 151.674 464.729 147.618 464.729 142.66C464.729 137.703 468.786 133.647 473.744 133.647C478.702 133.647 482.759 137.703 482.759 142.66Z" fill="black"/>
<path d="M446.699 142.66C446.699 147.618 442.642 151.674 437.684 151.674C432.726 151.674 428.669 147.618 428.669 142.66C428.669 137.703 432.726 133.647 437.684 133.647C442.642 133.647 446.699 137.703 446.699 142.66Z" fill="black"/>
<path d="M406.132 147.167C406.132 183.221 427.768 205.305 454.812 205.305C481.857 205.305 505.296 183.221 505.296 147.167C505.296 129.14 500.789 120.126 500.789 120.126L482.759 102.099C482.759 102.099 428.669 111.113 410.639 120.126C410.639 120.126 406.132 129.14 406.132 147.167Z" stroke="black" stroke-width="0.5" stroke-linejoin="round"/>
<path d="M441.29 175.109C449.854 179.616 459.771 179.616 468.335 175.109" stroke="black" stroke-width="0.5" stroke-linecap="round" stroke-linejoin="round"/>
<path d="M383.594 210.262C365.564 183.221 375.481 172.856 384.045 151.674C391.257 132.745 383.144 122.38 389.905 97.5924C396.666 72.8051 422.809 57.0313 451.657 57.0313C475.998 57.0313 487.717 70.5517 487.717 70.5517C506.648 72.3544 521.072 88.1281 521.072 106.606C522.875 139.055 525.58 139.055 536.398 164.293C544.511 182.771 540.905 194.939 527.834 209.811" stroke="black" stroke-width="0.5" stroke-linecap="round" stroke-linejoin="round"/>
<path d="M442.596 425.223V409.831C442.596 390.096 459.725 374.309 482.262 374.309C509.307 394.043 536.352 394.043 563.397 374.309C585.934 374.309 604.865 390.096 604.865 409.831V425.223H442.596Z" fill="#F592AA"/>
<path d="M461.077 379.835C467.387 376.282 474.599 374.309 482.262 374.309C509.307 394.043 536.352 394.043 563.397 374.309C571.059 374.309 578.271 376.282 584.582 379.44C589.991 375.888 594.949 372.336 598.555 369.178C611.627 356.943 615.233 342.339 607.57 326.552C596.752 304.055 594.048 304.45 592.245 276.032C592.245 259.456 577.821 245.642 558.889 244.458C558.889 244.458 547.17 232.617 522.829 232.617C493.982 232.617 467.838 246.431 461.077 268.139C454.316 290.241 462.429 298.924 455.217 315.501C447.104 334.051 429.074 348.654 449.358 370.362C452.062 373.125 456.119 376.677 461.077 379.835Z" fill="#CFB777"/>
<path d="M474.149 311.159C474.149 342.734 495.785 362.074 522.829 362.074C549.874 362.074 573.313 342.734 573.313 311.159C573.313 295.372 568.806 287.478 568.806 287.478L550.776 271.691C550.776 271.691 496.686 279.585 478.656 287.478C478.656 287.478 474.149 295.372 474.149 311.159Z" fill="#CBAB7F"/>
<path d="M442.596 421.671V409.436C442.596 389.702 459.725 373.914 482.262 373.914C509.307 393.649 536.352 393.649 563.397 373.914C585.934 373.914 604.865 389.702 604.865 409.436V421.671" stroke="black" stroke-width="0.5" stroke-linecap="round" stroke-linejoin="round"/>
<path d="M550.776 307.213C550.776 311.554 546.719 315.106 541.761 315.106C536.803 315.106 532.746 311.554 532.746 307.213C532.746 302.871 536.803 299.319 541.761 299.319C546.719 299.319 550.776 302.871 550.776 307.213Z" fill="black"/>
<path d="M514.716 307.213C514.716 311.554 510.659 315.106 505.701 315.106C500.743 315.106 496.686 311.554 496.686 307.213C496.686 302.871 500.743 299.319 505.701 299.319C510.659 299.319 514.716 302.871 514.716 307.213Z" fill="black"/>
<path d="M474.149 311.159C474.149 342.734 495.785 362.074 522.829 362.074C549.874 362.074 573.313 342.734 573.313 311.159C573.313 295.372 568.806 287.478 568.806 287.478L550.776 271.691C550.776 271.691 496.686 279.585 478.656 287.478C478.656 287.478 474.149 295.372 474.149 311.159Z" stroke="black" stroke-width="0.5" stroke-linejoin="round"/>
<path d="M509.307 335.63C517.871 339.577 527.788 339.577 536.352 335.63" stroke="black" stroke-width="0.5" stroke-linecap="round" stroke-linejoin="round"/>
<path d="M454.157 366.415C436.127 342.734 446.043 333.656 454.607 315.106C461.819 298.529 453.706 289.452 460.467 267.744C467.228 246.036 493.372 232.222 522.22 232.222C546.56 232.222 558.279 244.063 558.279 244.063C577.211 245.642 591.635 259.456 591.635 275.638C593.438 304.055 596.142 304.055 606.96 326.157C615.073 342.339 611.468 352.996 598.396 366.021" stroke="black" stroke-width="0.5" stroke-linecap="round" stroke-linejoin="round"/>
<g clip-path="url(#clip0)">
<path d="M160.569 267.81V250.659C160.569 228.672 177.851 211.081 200.591 211.081C227.878 233.069 255.166 233.069 282.454 211.081C305.194 211.081 324.295 228.672 324.295 250.659V267.81H160.569Z" fill="#51ECC7"/>
<path d="M179.215 217.238C185.582 213.28 192.859 211.081 200.591 211.081C227.878 233.069 255.166 233.069 282.454 211.081C290.186 211.081 297.462 213.28 303.829 216.798C309.287 212.84 314.29 208.883 317.928 205.365C331.117 191.732 334.756 175.461 327.024 157.871C316.109 132.805 313.38 133.245 311.561 101.583C311.561 83.1133 297.007 67.722 277.906 66.4027C277.906 66.4027 266.081 53.2101 241.522 53.2101C212.415 53.2101 186.037 68.6015 179.215 92.7879C172.393 117.414 180.58 127.089 173.303 145.558C165.117 166.227 146.925 182.497 167.391 206.684C170.119 209.762 174.212 213.72 179.215 217.238Z" fill="url(#paint0_linear)"/>
<path d="M192.404 140.721C192.404 175.901 214.235 197.449 241.522 197.449C268.81 197.449 292.459 175.901 292.459 140.721C292.459 123.131 287.912 114.336 287.912 114.336L269.72 96.7457C269.72 96.7457 215.144 105.541 196.952 114.336C196.952 114.336 192.404 123.131 192.404 140.721Z" fill="#A88351"/>
<path d="M160.569 263.852V250.219C160.569 228.232 177.851 210.642 200.591 210.642C227.878 232.629 255.166 232.629 282.454 210.642C305.194 210.642 324.295 228.232 324.295 250.219V263.852" stroke="black" stroke-width="0.5" stroke-linecap="round" stroke-linejoin="round"/>
<path d="M269.72 136.323C269.72 141.161 265.627 145.118 260.624 145.118C255.621 145.118 251.528 141.161 251.528 136.323C251.528 131.486 255.621 127.528 260.624 127.528C265.627 127.528 269.72 131.486 269.72 136.323Z" fill="black"/>
<path d="M233.336 136.323C233.336 141.161 229.243 145.118 224.24 145.118C219.237 145.118 215.144 141.161 215.144 136.323C215.144 131.486 219.237 127.528 224.24 127.528C229.243 127.528 233.336 131.486 233.336 136.323Z" fill="black"/>
<path d="M192.404 140.721C192.404 175.901 214.235 197.449 241.522 197.449C268.81 197.449 292.459 175.901 292.459 140.721C292.459 123.131 287.912 114.336 287.912 114.336L269.72 96.7457C269.72 96.7457 215.144 105.541 196.952 114.336C196.952 114.336 192.404 123.131 192.404 140.721Z" stroke="black" stroke-width="0.5" stroke-linejoin="round"/>
<path d="M227.878 167.986C236.52 172.383 246.525 172.383 255.166 167.986" stroke="black" stroke-width="0.5" stroke-linecap="round" stroke-linejoin="round"/>
<path d="M169.665 202.286C151.473 175.901 161.478 165.787 170.119 145.118C177.396 126.649 169.21 116.535 176.032 92.3481C182.854 68.1617 209.232 52.7704 238.339 52.7704C262.898 52.7704 274.723 65.9629 274.723 65.9629C293.824 67.722 308.377 83.1133 308.377 101.143C310.197 132.805 312.925 132.805 323.841 157.432C332.027 175.461 328.389 187.335 315.199 201.847" stroke="black" stroke-width="0.5" stroke-linecap="round" stroke-linejoin="round"/>
<path d="M306.406 21.383C306.406 22.8674 306.211 24.2346 305.821 25.4846C305.43 26.7346 304.922 27.9325 304.297 29.0783C303.698 30.2241 303.047 31.357 302.344 32.4767C301.641 33.5965 300.977 34.7814 300.352 36.0314C300.196 36.0314 300.078 36.0705 300 36.1486C299.948 36.2267 299.896 36.3309 299.844 36.4611C299.818 36.5653 299.766 36.6695 299.688 36.7736C299.636 36.8517 299.531 36.8908 299.375 36.8908C299.141 37.4637 298.841 38.0106 298.477 38.5314C298.112 39.0262 297.722 39.521 297.305 40.0158C296.914 40.4846 296.524 40.9663 296.133 41.4611C295.768 41.9559 295.443 42.4898 295.156 43.0627H294.766C293.36 45.0939 291.771 46.9168 290 48.5314C288.255 50.146 286.341 51.5913 284.258 52.8674C284.206 53.0236 284.128 53.1538 284.024 53.258C283.92 53.3622 283.893 53.5054 283.946 53.6877C283.659 53.8439 283.412 54.0392 283.203 54.2736C283.021 54.534 282.839 54.7945 282.656 55.0549C282.474 55.3153 282.279 55.5627 282.071 55.7971C281.888 56.0575 281.641 56.2528 281.328 56.383C280.938 56.3049 280.56 56.2398 280.196 56.1877C279.857 56.1356 279.505 56.0965 279.141 56.0705C278.985 56.0705 278.828 56.0705 278.672 56.0705C278.516 56.0965 278.373 56.0965 278.242 56.0705C277.956 56.0184 277.709 55.9012 277.5 55.7189C277.318 55.5627 277.045 55.4846 276.68 55.4846C276.498 55.4846 276.354 55.4976 276.25 55.5236C276.042 55.159 275.795 54.7814 275.508 54.3908C275.248 54.0262 275.117 53.6226 275.117 53.1799C275.117 52.8413 275.156 52.5288 275.235 52.2424C275.339 51.9559 275.391 51.6564 275.391 51.3439C275.391 50.7189 275.274 50.107 275.039 49.508C274.831 48.909 274.727 48.2971 274.727 47.6721C274.727 47.4637 274.753 47.2684 274.805 47.0861C274.857 46.8778 274.883 46.6695 274.883 46.4611C274.883 46.2267 274.779 46.0184 274.571 45.8361C274.597 45.7059 274.649 45.5757 274.727 45.4455C274.805 45.3153 274.844 45.1721 274.844 45.0158C274.896 44.8075 274.909 44.5861 274.883 44.3517C274.857 44.0913 274.844 43.857 274.844 43.6486C274.844 43.1017 274.87 42.5549 274.922 42.008C274.974 41.4611 275.091 40.9273 275.274 40.4064C275.248 40.2502 275.209 40.107 275.156 39.9767L275 39.5861C275.183 39.0392 275.3 38.4273 275.352 37.7502C275.404 37.0731 275.43 36.396 275.43 35.7189V33.6486C275.43 32.9715 275.469 32.3335 275.547 31.7346C275.599 31.4741 275.651 31.2267 275.703 30.9924C275.781 30.732 275.821 30.4846 275.821 30.2502C275.821 30.0418 275.781 29.8596 275.703 29.7033C275.625 29.521 275.521 29.3517 275.391 29.1955C275.573 29.1434 275.677 29.0392 275.703 28.883C275.729 28.7007 275.742 28.5445 275.742 28.4142C275.742 28.0497 275.677 27.646 275.547 27.2033C275.651 26.7606 275.716 26.3179 275.742 25.8752C275.768 25.4064 275.781 24.9507 275.781 24.508C275.781 22.9455 275.677 21.409 275.469 19.8986C275.287 18.3882 275.17 16.8648 275.117 15.3283H275C274.818 15.3283 274.675 15.3674 274.571 15.4455C274.466 15.5236 274.362 15.6148 274.258 15.7189C274.154 15.7971 274.037 15.8752 273.906 15.9533C273.776 16.0054 273.62 16.0184 273.438 15.9924C273.125 16.357 272.761 16.6695 272.344 16.9299C271.953 17.1903 271.537 17.4247 271.094 17.633C270.651 17.8413 270.196 18.0366 269.727 18.2189C269.258 18.3752 268.815 18.5314 268.399 18.6877C268.034 18.5575 267.722 18.3491 267.461 18.0627C267.201 17.7502 266.953 17.4377 266.719 17.1252C266.693 17.021 266.68 16.9168 266.68 16.8127V16.5002C266.68 15.771 266.849 15.2241 267.188 14.8596C267.526 14.4689 267.891 14.0132 268.281 13.4924H268.477C268.607 13.4924 268.724 13.5184 268.828 13.5705C268.906 13.6226 269.011 13.6486 269.141 13.6486H269.258C270.013 13.0236 270.808 12.5288 271.641 12.1642C272.5 11.7736 273.386 11.4741 274.297 11.2658C274.688 10.8752 275.078 10.5757 275.469 10.3674C275.886 10.159 276.367 10.0549 276.914 10.0549C277.045 10.0549 277.188 10.0679 277.344 10.0939C277.526 10.0939 277.683 10.107 277.813 10.133C278.88 9.6382 279.883 9.22154 280.821 8.883C281.784 8.51841 282.891 8.33612 284.141 8.33612C284.297 8.33612 284.401 8.29706 284.453 8.21893C284.531 8.14081 284.597 8.06268 284.649 7.98456C284.701 7.88039 284.753 7.78925 284.805 7.71112C284.857 7.633 284.948 7.59393 285.078 7.59393C285.078 7.64602 285.091 7.72414 285.117 7.82831C285.143 7.93247 285.209 7.98456 285.313 7.98456C285.417 7.98456 285.508 7.95852 285.586 7.90643C285.69 7.82831 285.808 7.78925 285.938 7.78925C286.068 7.78925 286.159 7.88039 286.211 8.06268C286.498 7.88039 286.771 7.71112 287.031 7.55487C287.292 7.39862 287.578 7.28143 287.891 7.20331C288.281 7.28143 288.672 7.34654 289.063 7.39862C289.479 7.4507 289.896 7.47675 290.313 7.47675C290.625 7.47675 290.938 7.46372 291.25 7.43768C291.563 7.3856 291.836 7.25539 292.071 7.04706C292.175 7.02102 292.227 7.0731 292.227 7.20331C292.461 7.41164 292.709 7.55487 292.969 7.633C293.229 7.68508 293.503 7.72414 293.789 7.75018C294.076 7.75018 294.362 7.7632 294.649 7.78925C294.935 7.81529 295.196 7.90643 295.43 8.06268C295.638 8.11477 295.808 8.20591 295.938 8.33612C296.068 8.44029 296.237 8.53143 296.446 8.60956C296.602 8.66164 296.81 8.7007 297.071 8.72675C297.357 8.75279 297.565 8.80487 297.696 8.883C297.826 8.93508 297.891 9.02622 297.891 9.15643C297.917 9.2606 297.995 9.35175 298.125 9.42987C298.36 9.61216 298.672 9.72935 299.063 9.78143C299.453 9.80747 299.792 9.92466 300.078 10.133C300.183 10.7059 300.469 11.0835 300.938 11.2658C301.406 11.4481 301.862 11.6304 302.305 11.8127C302.461 11.9689 302.513 12.1512 302.461 12.3596C302.774 12.5939 303.047 12.8543 303.281 13.1408C303.542 13.4273 303.776 13.7398 303.985 14.0783C304.219 14.3908 304.44 14.7033 304.649 15.0158C304.857 15.3283 305.104 15.6148 305.391 15.8752C305.365 16.1096 305.391 16.2918 305.469 16.4221C305.573 16.5523 305.599 16.7476 305.547 17.008C305.86 17.2945 306.146 17.6721 306.406 18.1408C306.25 18.3752 306.172 18.6356 306.172 18.9221C306.172 19.1825 306.211 19.4429 306.289 19.7033C306.367 19.9637 306.406 20.2241 306.406 20.4846V21.383ZM302.774 20.5236C302.774 19.7684 302.63 19.0392 302.344 18.3361C302.058 17.607 301.81 16.8908 301.602 16.1877C301.263 16.1877 301.042 16.0705 300.938 15.8361C300.86 15.5757 300.703 15.3543 300.469 15.1721C299.974 15.0679 299.662 14.6903 299.531 14.0392C299.011 13.8309 298.477 13.5965 297.93 13.3361C297.383 13.0757 296.927 12.7111 296.563 12.2424C295.625 11.9559 294.675 11.6695 293.711 11.383C292.774 11.0705 291.81 10.9142 290.821 10.9142C290.638 10.9142 290.469 10.9273 290.313 10.9533C290.183 10.9533 290.052 10.9533 289.922 10.9533C289.714 10.9533 289.492 10.9924 289.258 11.0705C289.024 11.1486 288.802 11.1877 288.594 11.1877C288.36 11.1877 288.125 11.1096 287.891 10.9533C287.37 11.2398 286.797 11.4611 286.172 11.6174C285.573 11.7736 284.961 11.9168 284.336 12.0471C283.711 12.1512 283.099 12.2945 282.5 12.4767C281.901 12.633 281.367 12.8804 280.899 13.2189C280.742 13.1668 280.586 13.1278 280.43 13.1017C280.3 13.0757 280.17 13.0627 280.039 13.0627C279.805 13.0627 279.623 13.1148 279.492 13.2189C279.414 13.271 279.362 13.3361 279.336 13.4142C279.336 13.4924 279.323 13.5835 279.297 13.6877C279.297 13.7658 279.271 13.8309 279.219 13.883C279.167 13.9351 279.063 13.9481 278.906 13.9221C278.906 14.0523 278.893 14.1695 278.867 14.2736C278.867 14.3778 278.867 14.495 278.867 14.6252C278.867 15.3023 278.933 15.9793 279.063 16.6564C279.219 17.3075 279.297 17.9715 279.297 18.6486C279.297 18.883 279.284 19.1304 279.258 19.3908C279.232 19.6252 279.18 19.8596 279.102 20.0939C279.232 20.4064 279.297 20.745 279.297 21.1096C279.323 21.4741 279.336 21.8387 279.336 22.2033C279.336 22.5679 279.349 22.9325 279.375 23.2971C279.401 23.6356 279.492 23.9611 279.649 24.2736C279.571 24.6642 279.518 25.0549 279.492 25.4455C279.466 25.8361 279.453 26.2267 279.453 26.6174C279.453 27.5288 279.492 28.4273 279.571 29.3127C279.675 30.1981 279.727 31.0965 279.727 32.008C279.727 32.2424 279.714 32.4898 279.688 32.7502C279.688 33.0106 279.675 33.271 279.649 33.5314C279.597 33.87 279.505 34.1955 279.375 34.508C279.245 34.8205 279.18 35.159 279.18 35.5236C279.18 35.758 279.193 36.0054 279.219 36.2658C279.245 36.5002 279.258 36.7476 279.258 37.008C279.258 37.1122 279.245 37.2163 279.219 37.3205C279.219 37.3986 279.219 37.4898 279.219 37.5939C279.089 38.5054 278.985 39.4299 278.906 40.3674C278.828 41.3049 278.789 42.2293 278.789 43.1408C278.789 44.0002 278.815 44.8596 278.867 45.7189C278.92 46.5523 278.998 47.3986 279.102 48.258C278.998 48.4403 278.946 48.6486 278.946 48.883C278.946 49.2476 279.037 49.6122 279.219 49.9767C279.401 50.3674 279.675 50.6278 280.039 50.758C280.873 50.4455 281.641 50.0288 282.344 49.508C283.073 49.0132 283.802 48.5054 284.531 47.9846C284.714 47.8543 284.987 47.6851 285.352 47.4767C285.716 47.2424 285.964 47.0731 286.094 46.9689C286.224 46.8648 286.328 46.7606 286.406 46.6564C286.511 46.5262 286.628 46.396 286.758 46.2658L288.477 44.4299C289.466 43.4142 290.443 42.3856 291.406 41.3439C292.396 40.3023 293.308 39.1955 294.141 38.0236C294.375 37.659 294.61 37.3075 294.844 36.9689C295.078 36.6043 295.3 36.2267 295.508 35.8361C295.612 35.7059 295.69 35.5627 295.742 35.4064C295.795 35.2241 295.886 35.0679 296.016 34.9377C296.094 34.8335 296.185 34.7293 296.289 34.6252C296.42 34.521 296.524 34.4168 296.602 34.3127C296.81 34.0783 297.005 33.8439 297.188 33.6096C297.396 33.3491 297.604 33.0757 297.813 32.7892C298.386 31.9559 298.92 31.1226 299.414 30.2892C299.909 29.4299 300.456 28.5835 301.055 27.7502C301.107 27.2293 301.211 26.7476 301.367 26.3049C301.524 25.8361 301.68 25.3934 301.836 24.9767C301.992 24.534 302.123 24.0783 302.227 23.6096C302.331 23.1408 302.357 22.62 302.305 22.0471C302.435 21.8648 302.539 21.7346 302.617 21.6564C302.722 21.5783 302.774 21.4221 302.774 21.1877V20.5236ZM315.156 43.2971C315.026 43.5054 314.87 43.7007 314.688 43.883C314.505 44.0392 314.336 44.2085 314.18 44.3908C313.998 44.4689 313.789 44.508 313.555 44.508C313.347 44.508 313.138 44.508 312.93 44.508C312.748 44.482 312.565 44.482 312.383 44.508C312.227 44.508 312.097 44.5601 311.992 44.6642C311.784 44.6122 311.628 44.521 311.524 44.3908C311.42 44.2346 311.237 44.1434 310.977 44.1174C310.873 44.0913 310.768 44.0913 310.664 44.1174C310.274 43.6747 309.909 43.2059 309.571 42.7111C309.258 42.2163 308.959 41.7476 308.672 41.3049C308.646 40.3413 308.568 39.3648 308.438 38.3752C308.412 38.1408 308.373 37.9064 308.321 37.6721C308.268 37.4377 308.229 37.2163 308.203 37.008C308.203 36.7476 308.216 36.5002 308.242 36.2658C308.295 36.0054 308.334 35.771 308.36 35.5627C308.464 34.8075 308.581 34.0653 308.711 33.3361C308.841 32.607 308.959 31.8648 309.063 31.1096C309.167 30.4325 309.219 29.7293 309.219 29.0002C309.219 28.245 309.102 27.5418 308.867 26.8908L308.828 26.6955C308.88 26.4872 308.933 26.3179 308.985 26.1877C309.063 26.0314 309.115 25.8622 309.141 25.6799C309.193 25.3934 309.128 25.1851 308.946 25.0549C309.024 24.8465 309.154 24.7163 309.336 24.6642C309.518 24.5861 309.623 24.4299 309.649 24.1955C309.675 24.0913 309.675 23.9872 309.649 23.883C309.857 23.8049 310.065 23.7398 310.274 23.6877C310.508 23.6096 310.729 23.5965 310.938 23.6486C311.276 23.7007 311.576 23.8179 311.836 24.0002C312.097 24.1564 312.344 24.3387 312.578 24.5471C312.995 25.7971 313.164 27.1252 313.086 28.5314C313.008 29.9116 312.878 31.3049 312.696 32.7111C312.513 34.1174 312.396 35.4976 312.344 36.8517C312.292 38.1799 312.5 39.4168 312.969 40.5627L313.047 40.6017C313.177 40.6278 313.281 40.5887 313.36 40.4846C313.438 40.3543 313.542 40.3023 313.672 40.3283C313.776 40.3804 313.841 40.4064 313.867 40.4064C313.972 40.9273 314.141 41.4221 314.375 41.8908C314.61 42.3596 314.87 42.8283 315.156 43.2971ZM340.313 20.8361C340.313 21.2788 340.287 21.7085 340.235 22.1252C340.209 22.5158 340.13 22.9325 340 23.3752C339.766 23.5575 339.558 23.7788 339.375 24.0392L338.828 24.7814C338.646 25.0158 338.451 25.2502 338.242 25.4846C338.034 25.6929 337.774 25.8622 337.461 25.9924C337.201 27.1382 336.875 28.245 336.485 29.3127C336.12 30.3543 335.847 31.4481 335.664 32.5939C335.352 33.1668 335.104 33.7918 334.922 34.4689C334.74 35.146 334.545 35.8361 334.336 36.5392C334.154 37.2163 333.946 37.8674 333.711 38.4924C333.477 39.1174 333.151 39.6773 332.735 40.1721C332.526 40.7971 332.318 41.4741 332.11 42.2033C331.901 42.9064 331.55 43.4924 331.055 43.9611C331.081 44.0132 331.094 44.0913 331.094 44.1955C331.094 44.508 331.016 44.8075 330.86 45.0939C330.703 45.3543 330.625 45.6278 330.625 45.9142C330.209 46.2267 329.805 46.5913 329.414 47.008C329.05 47.4247 328.672 47.8413 328.281 48.258C327.891 48.6747 327.474 49.0392 327.031 49.3517C326.589 49.6642 326.107 49.8726 325.586 49.9767C325.222 49.7163 324.883 49.4168 324.571 49.0783C324.258 48.7658 323.893 48.5054 323.477 48.2971C323.268 47.1252 323.138 45.9793 323.086 44.8596C323.06 43.7137 322.969 42.5809 322.813 41.4611C322.709 40.8101 322.539 40.1851 322.305 39.5861C322.097 38.9872 321.992 38.3752 321.992 37.7502C321.992 37.62 321.992 37.4898 321.992 37.3596C322.018 37.2033 322.045 37.0601 322.071 36.9299C321.81 36.6434 321.641 36.2918 321.563 35.8752C321.485 35.4325 321.42 34.9898 321.367 34.5471C321.315 34.0783 321.237 33.6226 321.133 33.1799C321.055 32.7372 320.899 32.3596 320.664 32.0471C320.768 31.9429 320.821 31.7997 320.821 31.6174C320.821 31.4872 320.795 31.357 320.742 31.2267C320.716 31.0965 320.703 30.9663 320.703 30.8361C320.703 30.732 320.742 30.6148 320.821 30.4846C320.612 30.2241 320.469 29.9898 320.391 29.7814C320.339 29.5471 320.3 29.3257 320.274 29.1174C320.248 28.883 320.222 28.6486 320.196 28.4142C320.196 28.1799 320.17 27.9325 320.117 27.6721C320.065 27.4898 319.974 27.3596 319.844 27.2814C319.74 27.1773 319.688 27.0991 319.688 27.0471C319.688 26.9168 319.74 26.8127 319.844 26.7346C319.479 26.2137 319.18 25.6668 318.946 25.0939C318.711 24.521 318.451 23.9481 318.164 23.3752C318.19 23.0887 318.295 22.8674 318.477 22.7111C318.659 22.5549 318.789 22.3465 318.867 22.0861H320.117C321.263 24.3257 322.136 26.6564 322.735 29.0783C323.36 31.4741 323.906 33.896 324.375 36.3439C324.505 37.0471 324.623 37.7502 324.727 38.4533C324.857 39.1564 325 39.8726 325.156 40.6017C325.209 40.758 325.287 40.9273 325.391 41.1096C325.495 41.2918 325.547 41.4741 325.547 41.6564C325.547 41.8127 325.508 41.9689 325.43 42.1252C325.586 42.2293 325.703 42.3726 325.781 42.5549C325.886 42.7372 325.964 42.9325 326.016 43.1408C326.094 43.3231 326.159 43.5184 326.211 43.7267C326.263 43.909 326.341 44.0783 326.446 44.2346C326.758 44.2085 327.031 44.0653 327.266 43.8049C327.5 43.5445 327.709 43.245 327.891 42.9064C328.099 42.5418 328.281 42.1903 328.438 41.8517C328.62 41.4872 328.828 41.2007 329.063 40.9924C329.089 40.7059 329.141 40.4325 329.219 40.1721C329.323 39.8856 329.375 39.5991 329.375 39.3127C329.636 38.87 329.87 38.4533 330.078 38.0627C330.287 37.6721 330.417 37.2033 330.469 36.6564C330.599 36.5523 330.677 36.4741 330.703 36.4221C330.729 36.3439 330.847 36.3309 331.055 36.383C331.055 35.6799 331.159 35.0028 331.367 34.3517C331.602 33.6747 331.914 33.0366 332.305 32.4377C332.357 31.8387 332.474 31.2398 332.656 30.6408C332.865 30.0158 333.099 29.4038 333.36 28.8049C333.438 28.6226 333.542 28.4142 333.672 28.1799C333.802 27.9195 333.867 27.6851 333.867 27.4767C333.867 27.3726 333.841 27.2814 333.789 27.2033C333.763 27.0991 333.75 26.995 333.75 26.8908C333.75 26.6825 333.828 26.5002 333.985 26.3439C334.141 26.1877 334.284 26.0314 334.414 25.8752C334.414 25.2762 334.479 24.6773 334.61 24.0783C334.74 23.4793 335 22.9585 335.391 22.5158C335.521 21.6304 335.69 20.771 335.899 19.9377C336.107 19.0783 336.406 18.258 336.797 17.4767H338.203C338.203 16.982 338.425 16.7346 338.867 16.7346C339.128 16.7346 339.414 16.7997 339.727 16.9299C339.935 17.5028 340.078 18.1538 340.156 18.883C340.261 19.5861 340.313 20.2372 340.313 20.8361ZM368.086 45.7971C368.008 46.1616 367.839 46.4611 367.578 46.6955C367.344 46.9038 367.058 47.0731 366.719 47.2033C366.38 47.3335 366.029 47.4247 365.664 47.4767C365.326 47.5028 365.013 47.5158 364.727 47.5158C364.597 47.5158 364.466 47.5158 364.336 47.5158C364.232 47.4898 364.115 47.4767 363.985 47.4767C363.854 47.4767 363.789 47.5418 363.789 47.6721C363.789 47.8023 363.724 47.8934 363.594 47.9455C363.464 47.8934 363.334 47.8543 363.203 47.8283C363.073 47.8023 362.943 47.7892 362.813 47.7892C362.63 47.7892 362.448 47.8023 362.266 47.8283C362.11 47.8543 361.953 47.8674 361.797 47.8674C361.589 47.8674 361.433 47.8413 361.328 47.7892C361.25 47.7372 361.172 47.6851 361.094 47.633C361.042 47.5549 360.977 47.4767 360.899 47.3986C360.847 47.3205 360.755 47.2554 360.625 47.2033C360.443 47.1252 360.287 47.1122 360.156 47.1642C360.052 47.2163 359.883 47.1382 359.649 46.9299C359.336 46.6695 359.063 46.357 358.828 45.9924C358.62 45.6017 358.412 45.1981 358.203 44.7814C357.995 44.3648 357.774 43.9481 357.539 43.5314C357.305 43.1148 357.031 42.7502 356.719 42.4377H356.406C355.938 42.4377 355.612 42.633 355.43 43.0236C355.3 42.9455 355.17 42.8543 355.039 42.7502C354.909 42.62 354.766 42.5158 354.61 42.4377C354.011 42.62 353.386 42.7762 352.735 42.9064C352.084 43.0366 351.433 43.1017 350.781 43.1017H350.235C350.078 43.1017 349.909 43.0757 349.727 43.0236C349.466 43.1278 349.232 43.258 349.024 43.4142C348.815 43.5445 348.581 43.6096 348.321 43.6096C348.164 43.6096 347.982 43.5575 347.774 43.4533C347.617 43.4533 347.539 43.5184 347.539 43.6486C347.565 43.7788 347.487 43.8439 347.305 43.8439H346.953C346.589 43.8439 346.224 43.857 345.86 43.883C345.521 43.909 345.17 43.9221 344.805 43.9221C344.31 43.9221 343.802 43.857 343.281 43.7267C343.151 43.8049 343.008 43.8439 342.852 43.8439C342.748 43.896 342.67 43.9872 342.617 44.1174C342.565 44.2215 342.513 44.3257 342.461 44.4299C342.409 44.508 342.331 44.5861 342.227 44.6642C342.149 44.7163 342.031 44.7293 341.875 44.7033C341.823 45.0158 341.693 45.2632 341.485 45.4455C341.276 45.6278 341.172 45.9012 341.172 46.2658C340.886 46.4221 340.651 46.6174 340.469 46.8517C340.287 47.0861 340.104 47.3335 339.922 47.5939C339.74 47.8543 339.545 48.1017 339.336 48.3361C339.154 48.5705 338.92 48.7528 338.633 48.883C338.503 49.0392 338.464 49.2866 338.516 49.6252C338.229 49.8596 337.878 50.0679 337.461 50.2502C337.045 50.4325 336.654 50.5236 336.289 50.5236C335.534 50.5236 335.013 50.12 334.727 49.3127C334.727 49.0523 334.753 48.7788 334.805 48.4924C334.831 48.1799 334.883 47.8934 334.961 47.633C335.039 47.3465 335.156 47.0991 335.313 46.8908C335.469 46.6564 335.69 46.4872 335.977 46.383C335.977 46.1486 335.899 45.9924 335.742 45.9142C335.586 45.8101 335.521 45.6408 335.547 45.4064C336.25 45.0679 336.862 44.6252 337.383 44.0783C337.904 43.5314 338.373 42.9585 338.789 42.3596C339.232 41.7346 339.675 41.1096 340.117 40.4846C340.56 39.8596 341.055 39.2997 341.602 38.8049V37.9846C342.383 37.1512 342.891 36.2137 343.125 35.1721C343.412 35.12 343.594 34.9898 343.672 34.7814C343.776 34.5731 343.828 34.3257 343.828 34.0392C343.959 34.0392 344.037 33.9872 344.063 33.883C344.115 33.7528 344.232 33.7137 344.414 33.7658C344.649 33.1408 344.909 32.5679 345.196 32.0471C345.482 31.5262 345.768 31.0054 346.055 30.4846C346.341 29.9377 346.589 29.3778 346.797 28.8049C347.031 28.232 347.201 27.5939 347.305 26.8908C347.67 26.8648 347.865 26.6955 347.891 26.383C347.943 26.0445 347.995 25.745 348.047 25.4846C348.438 25.12 348.724 24.6903 348.906 24.1955C349.115 23.7007 349.297 23.1929 349.453 22.6721C349.61 22.1252 349.779 21.5913 349.961 21.0705C350.17 20.5236 350.456 20.0418 350.821 19.6252V19.508C350.821 19.3778 350.768 19.2997 350.664 19.2736C350.56 19.2215 350.508 19.1304 350.508 19.0002C350.534 18.9741 350.547 18.9481 350.547 18.9221C350.86 18.7918 351.094 18.5835 351.25 18.2971C351.406 17.9846 351.641 17.7632 351.953 17.633C352.5 18.0757 352.982 18.3491 353.399 18.4533C353.815 18.5314 354.362 18.5965 355.039 18.6486C355.378 19.0132 355.56 19.4559 355.586 19.9767C355.638 20.4715 355.729 20.9663 355.86 21.4611C356.068 22.2945 356.289 23.1148 356.524 23.9221C356.784 24.7033 356.979 25.5106 357.11 26.3439C357.188 26.8387 357.331 27.3075 357.539 27.7502C357.748 28.1929 357.891 28.6486 357.969 29.1174C358.021 29.482 358.021 29.8986 357.969 30.3674C357.917 30.8101 357.969 31.2007 358.125 31.5392L358.399 32.1642C358.529 32.4507 358.633 32.7502 358.711 33.0627C358.815 33.3752 358.906 33.6877 358.985 34.0002C359.193 34.7814 359.375 35.6278 359.531 36.5392C359.714 37.4247 359.987 38.232 360.352 38.9611C360.482 39.2215 360.677 39.4038 360.938 39.508C361.224 39.6122 361.537 39.6903 361.875 39.7424C362.214 39.7684 362.539 39.7814 362.852 39.7814C363.19 39.7554 363.477 39.7424 363.711 39.7424H364.102C364.258 39.7424 364.414 39.7684 364.571 39.8205C364.675 40.0288 364.727 40.2111 364.727 40.3674C364.727 40.6799 364.623 40.9273 364.414 41.1096C364.206 41.2918 364.102 41.5002 364.102 41.7346C364.102 41.8648 364.154 42.008 364.258 42.1642C364.154 42.1382 363.998 42.1252 363.789 42.1252C363.19 42.1252 362.604 42.2293 362.031 42.4377C362.24 42.8804 362.513 43.258 362.852 43.5705C363.216 43.857 363.594 44.1304 363.985 44.3908C364.245 44.1825 364.518 44.0783 364.805 44.0783C365.117 44.0783 365.404 44.1564 365.664 44.3127C365.951 44.4429 366.25 44.508 366.563 44.508C366.797 44.508 366.966 44.4689 367.071 44.3908C367.279 44.6252 367.448 44.8726 367.578 45.133C367.709 45.3674 367.878 45.5887 368.086 45.7971ZM355.86 39.5471C355.808 39.1043 355.716 38.7918 355.586 38.6096C355.482 38.4012 355.391 38.1538 355.313 37.8674C355.209 37.5028 355.13 37.1122 355.078 36.6955C355.052 36.2788 355 35.8752 354.922 35.4846C354.74 34.5991 354.531 33.7137 354.297 32.8283C354.089 31.9429 353.815 31.0835 353.477 30.2502C353.581 30.0939 353.633 29.9507 353.633 29.8205V29.7033C353.399 29.4429 353.229 29.1304 353.125 28.7658C353.021 28.3752 352.917 27.9976 352.813 27.633C352.735 27.2424 352.617 26.8908 352.461 26.5783C352.331 26.2398 352.11 25.9663 351.797 25.758C351.719 25.9142 351.68 26.0965 351.68 26.3049C351.68 26.4872 351.693 26.6564 351.719 26.8127C351.771 26.9689 351.797 27.1382 351.797 27.3205C351.537 27.4507 351.341 27.659 351.211 27.9455C351.107 28.2059 350.925 28.4142 350.664 28.5705C350.456 29.4038 350.156 30.1981 349.766 30.9533C349.375 31.6825 348.959 32.4116 348.516 33.1408C348.099 33.87 347.696 34.6122 347.305 35.3674C346.914 36.0965 346.602 36.8648 346.367 37.6721C346.029 37.9064 345.795 38.2059 345.664 38.5705C345.56 38.9351 345.508 39.2997 345.508 39.6642C345.742 39.7945 346.003 39.8726 346.289 39.8986C346.602 39.8986 346.901 39.8986 347.188 39.8986C347.474 39.8986 347.748 39.9247 348.008 39.9767C348.268 40.0288 348.503 40.159 348.711 40.3674C349.05 40.2632 349.414 40.1981 349.805 40.1721C350.222 40.12 350.56 40.0028 350.821 39.8205C351.341 40.0028 351.901 40.0939 352.5 40.0939C352.813 40.0939 353.112 40.0679 353.399 40.0158C353.711 39.9637 354.011 39.8986 354.297 39.8205C354.531 39.8726 354.714 39.9637 354.844 40.0939C354.974 40.1981 355.17 40.2372 355.43 40.2111C355.56 40.107 355.638 40.0028 355.664 39.8986C355.69 39.7684 355.755 39.6512 355.86 39.5471ZM388.438 43.7267C388.438 44.1695 388.321 44.5601 388.086 44.8986C387.878 45.2111 387.8 45.6017 387.852 46.0705C387.487 46.2788 387.188 46.5523 386.953 46.8908C386.719 47.2293 386.498 47.5809 386.289 47.9455C384.571 49.0653 382.722 49.9637 380.742 50.6408C378.789 51.3439 376.771 51.6955 374.688 51.6955C374.558 51.6955 374.44 51.6304 374.336 51.5002C374.232 51.396 374.128 51.2788 374.024 51.1486C373.92 51.0184 373.802 50.8882 373.672 50.758C373.568 50.6538 373.438 50.6017 373.281 50.6017C373.099 50.6017 372.956 50.6408 372.852 50.7189C372.852 50.6668 372.852 50.6148 372.852 50.5627C372.878 50.5366 372.891 50.4976 372.891 50.4455C372.891 50.133 372.852 49.8075 372.774 49.4689C372.696 49.1564 372.656 48.8439 372.656 48.5314C372.656 48.1668 372.722 47.8674 372.852 47.633H373.321C373.581 47.633 373.828 47.62 374.063 47.5939C374.323 47.5418 374.597 47.5158 374.883 47.5158C375.17 47.5158 375.43 47.5939 375.664 47.7502C377.097 47.6981 378.451 47.4377 379.727 46.9689C381.029 46.4741 382.344 45.9924 383.672 45.5236C383.88 45.2372 383.998 44.9247 384.024 44.5861C384.076 44.2215 384.18 43.883 384.336 43.5705C383.659 42.9976 382.969 42.5549 382.266 42.2424C381.589 41.9038 380.795 41.7866 379.883 41.8908C379.336 41.5523 378.75 41.357 378.125 41.3049C377.526 41.2528 376.914 41.1747 376.289 41.0705C376.133 41.0445 375.964 41.0184 375.781 40.9924C375.625 40.9403 375.456 40.9142 375.274 40.9142C375.143 40.9142 375.013 40.9533 374.883 41.0314C374.779 41.0835 374.753 41.1747 374.805 41.3049C374.675 41.0965 374.492 40.9793 374.258 40.9533C374.05 40.9012 373.867 40.7971 373.711 40.6408C372.878 40.5887 372.149 40.4455 371.524 40.2111C370.899 39.9507 370.209 39.6642 369.453 39.3517C369.245 39.2736 369.037 39.2215 368.828 39.1955C368.646 39.1434 368.464 39.0653 368.281 38.9611C367.813 38.7267 367.435 38.4142 367.149 38.0236C366.862 37.633 366.641 37.2033 366.485 36.7346C366.302 36.2398 366.172 35.732 366.094 35.2111C366.016 34.6903 365.938 34.2085 365.86 33.7658C366.094 33.3491 366.315 32.9195 366.524 32.4767C366.706 32.034 366.862 31.5653 366.992 31.0705C367.149 30.9924 367.305 30.9273 367.461 30.8752C367.617 30.8231 367.787 30.758 367.969 30.6799C367.943 30.6278 367.93 30.5627 367.93 30.4846C367.93 30.3543 367.969 30.2241 368.047 30.0939C368.151 29.9637 368.177 29.8335 368.125 29.7033C368.698 29.1825 369.245 28.6486 369.766 28.1017C370.313 27.5288 370.781 26.9038 371.172 26.2267C371.563 26.0965 371.875 25.9012 372.11 25.6408C372.344 25.3804 372.578 25.12 372.813 24.8596C373.047 24.5731 373.308 24.3257 373.594 24.1174C373.88 23.883 374.245 23.7398 374.688 23.6877C374.792 23.5054 374.935 23.3622 375.117 23.258C375.3 23.1278 375.482 23.0106 375.664 22.9064C375.847 22.8023 376.016 22.6851 376.172 22.5549C376.328 22.4247 376.446 22.2424 376.524 22.008C376.94 22.008 377.318 21.9299 377.656 21.7736C378.021 21.6174 378.373 21.4481 378.711 21.2658C379.05 21.0835 379.388 20.9142 379.727 20.758C380.091 20.6017 380.482 20.5236 380.899 20.5236C381.003 20.5236 381.107 20.5366 381.211 20.5627C381.315 20.5627 381.433 20.5757 381.563 20.6017C381.745 20.784 381.862 21.0054 381.914 21.2658C381.992 21.5002 382.045 21.7606 382.071 22.0471C382.097 22.3335 382.11 22.62 382.11 22.9064C382.136 23.1929 382.188 23.4533 382.266 23.6877C382.031 24.1304 381.771 24.5731 381.485 25.0158C381.224 25.4585 380.873 25.7971 380.43 26.0314H380.352C380.17 26.0575 380 26.0184 379.844 25.9142C379.688 25.8101 379.505 25.758 379.297 25.758C379.167 25.758 379.063 25.7971 378.985 25.8752L378.789 26.0705C378.737 26.1226 378.659 26.1747 378.555 26.2267C378.477 26.2788 378.36 26.2788 378.203 26.2267C377.839 26.357 377.696 26.5783 377.774 26.8908C377.279 26.9429 376.862 27.0991 376.524 27.3596C376.185 27.5939 375.873 27.8674 375.586 28.1799C375.3 28.4663 375.013 28.7398 374.727 29.0002C374.44 29.2346 374.102 29.3648 373.711 29.3908C373.268 30.1721 372.722 30.8622 372.071 31.4611C371.446 32.0601 370.925 32.7372 370.508 33.4924C370.586 33.7007 370.638 33.9221 370.664 34.1564C370.69 34.3908 370.729 34.6382 370.781 34.8986C371.016 35.2111 371.289 35.4846 371.602 35.7189C371.94 35.9533 372.266 36.1877 372.578 36.4221H372.696C373.216 36.4221 373.698 36.5262 374.141 36.7346C374.584 36.9168 375.052 37.008 375.547 37.008C375.808 37.008 376.029 36.9559 376.211 36.8517C376.888 37.008 377.552 37.1382 378.203 37.2424C378.88 37.3465 379.558 37.4247 380.235 37.4767C380.573 37.5288 380.912 37.5549 381.25 37.5549C381.615 37.5549 381.953 37.5939 382.266 37.6721C382.552 37.7502 382.839 37.8543 383.125 37.9846C383.412 38.0887 383.698 38.2059 383.985 38.3361C384.584 38.5965 385.143 38.883 385.664 39.1955C386.211 39.508 386.693 39.8856 387.11 40.3283C387.526 40.745 387.852 41.2398 388.086 41.8127C388.321 42.3596 388.438 42.9976 388.438 43.7267Z" fill="#FFEDED"/>
</g>
<path d="M261.865 424.465V408.806C261.865 388.731 278.994 372.67 301.531 372.67C328.576 392.746 355.621 392.746 382.666 372.67C405.203 372.67 424.134 388.731 424.134 408.806V424.465H261.865Z" fill="#CF244D"/>
<path d="M280.346 378.291C286.657 374.678 293.868 372.67 301.531 372.67C328.576 392.746 355.621 392.746 382.666 372.67C390.328 372.67 397.54 374.678 403.851 377.89C409.26 374.276 414.218 370.663 417.824 367.45C430.896 355.004 434.502 340.148 426.839 324.087C416.021 301.201 413.317 301.602 411.514 272.693C411.514 255.83 397.09 241.777 378.158 240.572C378.158 240.572 366.439 228.527 342.098 228.527C313.251 228.527 287.107 242.58 280.346 264.663C273.585 287.148 281.698 295.981 274.486 312.845C266.373 331.716 248.343 346.572 268.627 368.655C271.331 371.466 275.388 375.079 280.346 378.291Z" fill="#3C2B20"/>
<path d="M293.418 308.428C293.418 340.549 315.054 360.223 342.098 360.223C369.143 360.223 392.582 340.549 392.582 308.428C392.582 292.367 388.075 284.337 388.075 284.337L370.045 268.277C370.045 268.277 315.955 276.307 297.925 284.337C297.925 284.337 293.418 292.367 293.418 308.428Z" fill="#D0B999"/>
<path d="M261.865 420.852V408.405C261.865 388.329 278.994 372.269 301.531 372.269C328.576 392.344 355.621 392.344 382.666 372.269C405.203 372.269 424.134 388.329 424.134 408.405V420.852" stroke="black" stroke-width="0.5" stroke-linecap="round" stroke-linejoin="round"/>
<path d="M370.045 304.413C370.045 308.829 365.988 312.443 361.03 312.443C356.072 312.443 352.015 308.829 352.015 304.413C352.015 299.996 356.072 296.383 361.03 296.383C365.988 296.383 370.045 299.996 370.045 304.413Z" fill="black"/>
<path d="M333.985 304.413C333.985 308.829 329.928 312.443 324.97 312.443C320.012 312.443 315.955 308.829 315.955 304.413C315.955 299.996 320.012 296.383 324.97 296.383C329.928 296.383 333.985 299.996 333.985 304.413Z" fill="black"/>
<path d="M293.418 308.428C293.418 340.549 315.054 360.223 342.098 360.223C369.143 360.223 392.582 340.549 392.582 308.428C392.582 292.367 388.075 284.337 388.075 284.337L370.045 268.277C370.045 268.277 315.955 276.307 297.925 284.337C297.925 284.337 293.418 292.367 293.418 308.428Z" stroke="black" stroke-width="0.5" stroke-linejoin="round"/>
<path d="M328.576 333.322C337.14 337.337 347.057 337.337 355.621 333.322" stroke="black" stroke-width="0.5" stroke-linecap="round" stroke-linejoin="round"/>
<path d="M270.88 364.64C252.85 340.549 262.767 331.314 271.331 312.443C278.543 295.58 270.43 286.345 277.191 264.262C283.952 242.178 310.095 228.125 338.943 228.125C363.284 228.125 375.003 240.171 375.003 240.171C393.934 241.777 408.358 255.83 408.358 272.292C410.161 301.201 412.866 301.201 423.684 323.686C431.797 340.148 428.191 350.988 415.12 364.238" stroke="black" stroke-width="0.5" stroke-linecap="round" stroke-linejoin="round"/>
<path d="M81.1345 425.674V409.749C81.1345 389.332 98.2629 372.998 120.8 372.998C147.845 393.415 174.89 393.415 201.935 372.998C224.472 372.998 243.404 389.332 243.404 409.749V425.674H81.1345Z" fill="#73B2BB"/>
<path d="M99.6152 378.715C105.926 375.04 113.138 372.998 120.8 372.998C147.845 393.415 174.89 393.415 201.935 372.998C209.598 372.998 216.81 375.04 223.12 378.306C228.529 374.631 233.487 370.956 237.093 367.689C250.165 355.031 253.771 339.922 246.108 323.589C235.29 300.313 232.586 300.721 230.783 271.321C230.783 254.17 216.359 239.878 197.427 238.653C197.427 238.653 185.708 226.403 161.368 226.403C132.52 226.403 106.376 240.695 99.6152 263.154C92.854 286.021 100.967 295.005 93.7555 312.155C85.642 331.347 67.6121 346.456 87.8958 368.914C90.6003 371.773 94.657 375.448 99.6152 378.715Z" fill="#C09F48"/>
<path d="M112.687 307.663C112.687 340.331 134.323 360.339 161.368 360.339C188.412 360.339 211.851 340.331 211.851 307.663C211.851 291.33 207.344 283.163 207.344 283.163L189.314 266.829C189.314 266.829 135.224 274.996 117.194 283.163C117.194 283.163 112.687 291.33 112.687 307.663Z" fill="#CBAB7F"/>
<path d="M81.1345 421.999V409.34C81.1345 388.923 98.2629 372.59 120.8 372.59C147.845 393.007 174.89 393.007 201.935 372.59C224.472 372.59 243.404 388.923 243.404 409.34V421.999" stroke="black" stroke-width="0.5" stroke-linecap="round" stroke-linejoin="round"/>
<path d="M189.314 303.58C189.314 308.072 185.257 311.747 180.299 311.747C175.341 311.747 171.284 308.072 171.284 303.58C171.284 299.088 175.341 295.413 180.299 295.413C185.257 295.413 189.314 299.088 189.314 303.58Z" fill="black"/>
<path d="M153.254 303.58C153.254 308.072 149.197 311.747 144.239 311.747C139.281 311.747 135.224 308.072 135.224 303.58C135.224 299.088 139.281 295.413 144.239 295.413C149.197 295.413 153.254 299.088 153.254 303.58Z" fill="black"/>
<path d="M112.687 307.663C112.687 340.331 134.323 360.339 161.368 360.339C188.412 360.339 211.851 340.331 211.851 307.663C211.851 291.33 207.344 283.163 207.344 283.163L189.314 266.829C189.314 266.829 135.224 274.996 117.194 283.163C117.194 283.163 112.687 291.33 112.687 307.663Z" stroke="black" stroke-width="0.5" stroke-linejoin="round"/>
<path d="M147.845 332.98C156.409 337.064 166.326 337.064 174.89 332.98" stroke="black" stroke-width="0.5" stroke-linecap="round" stroke-linejoin="round"/>
<path d="M90.1495 364.831C72.1196 340.331 82.0361 330.939 90.6003 311.747C97.8123 294.596 89.6988 285.204 96.46 262.746C103.221 240.287 129.365 225.995 158.212 225.995C182.553 225.995 194.272 238.245 194.272 238.245C213.204 239.878 227.628 254.17 227.628 270.912C229.431 300.313 232.135 300.313 242.953 323.18C251.066 339.922 247.46 350.947 234.389 364.423" stroke="black" stroke-width="0.5" stroke-linecap="round" stroke-linejoin="round"/>
<defs>
<linearGradient id="paint0_linear" x1="244.525" y1="53.2101" x2="244.525" y2="227.572" gradientUnits="userSpaceOnUse">
<stop offset="0.276042" stop-color="#3E3128"/>
<stop offset="0.609375" stop-color="#634836"/>
<stop offset="1" stop-color="#CFB777"/>
</linearGradient>
<clipPath id="clip0">
<rect width="327.453" height="316.622" fill="white" transform="translate(78.7053)"/>
</clipPath>
</defs>
</svg>
